<mxfile host="app.diagrams.net" modified="2024-03-20T14:23:20.217Z" agent="Mozilla/5.0 (Windows NT 10.0; Win64; x64) AppleWebKit/537.36 (KHTML, like Gecko) Chrome/122.0.0.0 Safari/537.36 Edg/122.0.0.0" etag="F5kOre_LaU-GWHBWIbhe" version="24.0.7" type="device">
  <diagram name="Page-1" id="0TSQYhWZiU3ZCPUQ66B-">
    <mxGraphModel dx="1042" dy="577" grid="1" gridSize="10" guides="1" tooltips="1" connect="1" arrows="1" fold="1" page="1" pageScale="1" pageWidth="850" pageHeight="1100" math="0" shadow="0">
      <root>
        <mxCell id="0" />
        <mxCell id="1" parent="0" />
        <mxCell id="XiQB5Cmx3jU94zcXoP7L-9" style="edgeStyle=orthogonalEdgeStyle;rounded=0;orthogonalLoop=1;jettySize=auto;html=1;exitX=1;exitY=0.5;exitDx=0;exitDy=0;entryX=0;entryY=0.5;entryDx=0;entryDy=0;" parent="1" source="BjvIwWfCL7ftc54---Ka-8" target="XiQB5Cmx3jU94zcXoP7L-4" edge="1">
          <mxGeometry relative="1" as="geometry" />
        </mxCell>
        <mxCell id="BjvIwWfCL7ftc54---Ka-8" value="Start" style="ellipse;whiteSpace=wrap;html=1;" parent="1" vertex="1">
          <mxGeometry x="25" y="24" width="50" height="30" as="geometry" />
        </mxCell>
        <mxCell id="BjvIwWfCL7ftc54---Ka-19" value="Begin Processing" style="ellipse;whiteSpace=wrap;html=1;" parent="1" vertex="1">
          <mxGeometry x="161" y="190" width="80" height="50" as="geometry" />
        </mxCell>
        <mxCell id="XiQB5Cmx3jU94zcXoP7L-1" value="Download Config and End" style="ellipse;whiteSpace=wrap;html=1;" parent="1" vertex="1">
          <mxGeometry x="257.25" y="188" width="107.5" height="54" as="geometry" />
        </mxCell>
        <mxCell id="XiQB5Cmx3jU94zcXoP7L-10" style="edgeStyle=orthogonalEdgeStyle;rounded=0;orthogonalLoop=1;jettySize=auto;html=1;exitX=1;exitY=0.5;exitDx=0;exitDy=0;entryX=0;entryY=0.5;entryDx=0;entryDy=0;" parent="1" source="XiQB5Cmx3jU94zcXoP7L-4" target="XiQB5Cmx3jU94zcXoP7L-5" edge="1">
          <mxGeometry relative="1" as="geometry" />
        </mxCell>
        <mxCell id="XiQB5Cmx3jU94zcXoP7L-4" value="Kill all Processes used by automation" style="rounded=0;whiteSpace=wrap;html=1;" parent="1" vertex="1">
          <mxGeometry x="104" y="9" width="120" height="60" as="geometry" />
        </mxCell>
        <mxCell id="XiQB5Cmx3jU94zcXoP7L-11" style="edgeStyle=orthogonalEdgeStyle;rounded=0;orthogonalLoop=1;jettySize=auto;html=1;exitX=0.5;exitY=1;exitDx=0;exitDy=0;entryX=0.5;entryY=0;entryDx=0;entryDy=0;" parent="1" source="XiQB5Cmx3jU94zcXoP7L-5" target="XiQB5Cmx3jU94zcXoP7L-6" edge="1">
          <mxGeometry relative="1" as="geometry" />
        </mxCell>
        <mxCell id="XiQB5Cmx3jU94zcXoP7L-5" value="Folder Structure Validation" style="rounded=0;whiteSpace=wrap;html=1;" parent="1" vertex="1">
          <mxGeometry x="251" y="9" width="120" height="60" as="geometry" />
        </mxCell>
        <mxCell id="XiQB5Cmx3jU94zcXoP7L-16" style="edgeStyle=orthogonalEdgeStyle;rounded=0;orthogonalLoop=1;jettySize=auto;html=1;exitX=0.5;exitY=1;exitDx=0;exitDy=0;entryX=0.5;entryY=0;entryDx=0;entryDy=0;" parent="1" source="XiQB5Cmx3jU94zcXoP7L-6" target="XiQB5Cmx3jU94zcXoP7L-1" edge="1">
          <mxGeometry relative="1" as="geometry" />
        </mxCell>
        <mxCell id="_Z1EjYV3M92G-8-3gBuS-2" value="No" style="edgeLabel;html=1;align=center;verticalAlign=middle;resizable=0;points=[];" vertex="1" connectable="0" parent="XiQB5Cmx3jU94zcXoP7L-16">
          <mxGeometry x="-0.1714" y="1" relative="1" as="geometry">
            <mxPoint as="offset" />
          </mxGeometry>
        </mxCell>
        <mxCell id="XiQB5Cmx3jU94zcXoP7L-17" value="" style="edgeStyle=orthogonalEdgeStyle;rounded=0;orthogonalLoop=1;jettySize=auto;html=1;" parent="1" source="XiQB5Cmx3jU94zcXoP7L-6" target="XiQB5Cmx3jU94zcXoP7L-7" edge="1">
          <mxGeometry relative="1" as="geometry" />
        </mxCell>
        <mxCell id="_Z1EjYV3M92G-8-3gBuS-1" value="Yes" style="edgeLabel;html=1;align=center;verticalAlign=middle;resizable=0;points=[];" vertex="1" connectable="0" parent="XiQB5Cmx3jU94zcXoP7L-17">
          <mxGeometry x="-0.0955" y="2" relative="1" as="geometry">
            <mxPoint as="offset" />
          </mxGeometry>
        </mxCell>
        <mxCell id="XiQB5Cmx3jU94zcXoP7L-6" value="Config Validation&lt;div&gt;Does Config Exist?&lt;/div&gt;" style="rounded=0;whiteSpace=wrap;html=1;" parent="1" vertex="1">
          <mxGeometry x="251" y="100" width="120" height="60" as="geometry" />
        </mxCell>
        <mxCell id="XiQB5Cmx3jU94zcXoP7L-20" style="edgeStyle=orthogonalEdgeStyle;rounded=0;orthogonalLoop=1;jettySize=auto;html=1;exitX=0.5;exitY=1;exitDx=0;exitDy=0;entryX=0.5;entryY=0;entryDx=0;entryDy=0;" parent="1" source="XiQB5Cmx3jU94zcXoP7L-7" target="XiQB5Cmx3jU94zcXoP7L-8" edge="1">
          <mxGeometry relative="1" as="geometry" />
        </mxCell>
        <mxCell id="XiQB5Cmx3jU94zcXoP7L-7" value="Transaction Log Validation" style="rounded=0;whiteSpace=wrap;html=1;" parent="1" vertex="1">
          <mxGeometry x="20" y="100" width="120" height="60" as="geometry" />
        </mxCell>
        <mxCell id="XiQB5Cmx3jU94zcXoP7L-21" style="edgeStyle=orthogonalEdgeStyle;rounded=0;orthogonalLoop=1;jettySize=auto;html=1;exitX=1;exitY=0.5;exitDx=0;exitDy=0;entryX=0;entryY=0.5;entryDx=0;entryDy=0;" parent="1" source="XiQB5Cmx3jU94zcXoP7L-8" target="BjvIwWfCL7ftc54---Ka-19" edge="1">
          <mxGeometry relative="1" as="geometry" />
        </mxCell>
        <mxCell id="XiQB5Cmx3jU94zcXoP7L-8" value="Initialize All Settings" style="rounded=0;whiteSpace=wrap;html=1;" parent="1" vertex="1">
          <mxGeometry x="20" y="185" width="120" height="60" as="geometry" />
        </mxCell>
      </root>
    </mxGraphModel>
  </diagram>
</mxfile>
